<svg id="visual" viewBox="0 0 450 900" width="450" height="900" xmlns="http://www.w3.org/2000/svg" xmlns:xlink="http://www.w3.org/1999/xlink" version="1.1"><rect width="450" height="900" fill="#4FACF7"></rect><g><g transform="translate(232 759)"><path d="M0 -127.3L81.8 -97.5L125.4 -22.1L110.2 63.7L43.5 119.6L-43.5 119.6L-110.2 63.7L-125.4 -22.1L-81.8 -97.5Z" fill="#4FACF7"></path></g><g transform="translate(125 302)"><path d="M0 -83L53.4 -63.6L81.7 -14.4L71.9 41.5L28.4 78L-28.4 78L-71.9 41.5L-81.7 -14.4L-53.4 -63.6Z" fill="#4FACF7"></path></g><g transform="translate(422 543)"><path d="M0 -90L57.9 -68.9L88.6 -15.6L77.9 45L30.8 84.6L-30.8 84.6L-77.9 45L-88.6 -15.6L-57.9 -68.9Z" fill="#4FACF7"></path></g></g></svg>